<svg width="106" height="154" fill="none" xmlns="http://www.w3.org/2000/svg"><path d="M28.898 133.939c-.158 1.354-.659 2.4-1.503 3.138-.837.733-1.954 1.099-3.348 1.099-1.512 0-2.725-.542-3.639-1.626-.908-1.084-1.362-2.534-1.362-4.351v-1.23c0-1.19.21-2.236.633-3.138.427-.902 1.031-1.594 1.81-2.074.78-.486 1.682-.73 2.707-.73 1.36 0 2.45.381 3.27 1.143.82.756 1.298 1.805 1.432 3.146h-1.696c-.146-1.019-.466-1.757-.958-2.214-.486-.457-1.169-.686-2.048-.686-1.078 0-1.925.398-2.54 1.195-.61.797-.914 1.931-.914 3.402v1.239c0 1.389.29 2.493.87 3.313.58.821 1.392 1.231 2.435 1.231.937 0 1.655-.211 2.153-.633.504-.428.838-1.169 1.002-2.224h1.696zm5.019.009H32.73V138h-1.634v-9.51h1.634v4.026h1.064l3.2-4.026h1.968l-3.762 4.571L39.278 138h-2.065l-3.296-4.052zM46.547 138c-.094-.188-.17-.521-.229-1.002-.755.785-1.658 1.178-2.707 1.178-.937 0-1.708-.264-2.311-.791-.598-.533-.897-1.207-.897-2.022 0-.99.375-1.758 1.125-2.302.756-.551 1.817-.827 3.182-.827h1.582v-.747c0-.568-.17-1.019-.51-1.353-.34-.34-.84-.51-1.503-.51-.58 0-1.066.147-1.459.439-.392.293-.589.648-.589 1.064h-1.634c0-.475.167-.932.5-1.371.34-.445.797-.797 1.372-1.055a4.64 4.64 0 011.907-.387c1.096 0 1.954.276 2.575.827.621.545.944 1.297.967 2.258v4.377c0 .873.111 1.568.334 2.083V138h-1.705zm-2.698-1.239c.51 0 .993-.132 1.45-.396.457-.263.788-.606.993-1.028v-1.951h-1.274c-1.993 0-2.989.583-2.989 1.749 0 .51.17.908.51 1.195.34.287.776.431 1.31.431zM57.648 138h-1.635v-3.445a8.646 8.646 0 01-2.198.281c-1.189 0-2.097-.305-2.724-.914-.621-.61-.938-1.477-.95-2.602v-2.839h1.627v2.892c.029 1.418.712 2.127 2.047 2.127.75 0 1.483-.094 2.198-.281v-4.729h1.635V138zm8.48 0c-.093-.188-.169-.521-.228-1.002-.756.785-1.658 1.178-2.707 1.178-.937 0-1.708-.264-2.311-.791-.598-.533-.897-1.207-.897-2.022 0-.99.375-1.758 1.125-2.302.756-.551 1.817-.827 3.182-.827h1.582v-.747c0-.568-.17-1.019-.51-1.353-.34-.34-.84-.51-1.503-.51-.58 0-1.066.147-1.459.439-.392.293-.589.648-.589 1.064H60.18c0-.475.167-.932.5-1.371.34-.445.798-.797 1.372-1.055a4.64 4.64 0 011.907-.387c1.096 0 1.954.276 2.575.827.621.545.944 1.297.967 2.258v4.377c0 .873.111 1.568.334 2.083V138H66.13zm-2.697-1.239c.51 0 .993-.132 1.45-.396.457-.263.788-.606.993-1.028v-1.951H64.6c-1.993 0-2.989.583-2.989 1.749 0 .51.17.908.51 1.195.34.287.776.431 1.31.431zm13.544-6.952h-3.19V138h-1.627v-8.191H69.03v-1.319h7.946v1.319zm3.357 1.96h2.47c1.078.011 1.93.293 2.557.843.627.551.94 1.298.94 2.242 0 .949-.322 1.71-.966 2.285-.644.574-1.512.861-2.602.861h-4.025v-9.51h1.626v3.279zm0 1.327v3.577h2.417c.61 0 1.081-.155 1.415-.466.334-.316.501-.747.501-1.292 0-.527-.164-.958-.492-1.292-.322-.34-.776-.516-1.362-.527h-2.479z" fill="#B2D235"/><path d="M66 1H14c-3.448 0-6.754 1.601-9.192 4.452C2.37 8.302 1 12.169 1 16.2v121.6c0 4.031 1.37 7.897 3.808 10.748C7.246 151.399 10.552 153 14 153h78c3.448 0 6.754-1.601 9.192-4.452 2.438-2.851 3.808-6.717 3.808-10.748V46.6M66 1l39 45.6M66 1v45.6h39m-26 38H27M79 115H27m13-60.8H27" stroke="#000" stroke-width="2" stroke-linecap="round" stroke-linejoin="round"/></svg>