<svg width="40" height="40" fill="none" xmlns="http://www.w3.org/2000/svg"><g clip-path="url(#clip0_1_195)"><path d="M21.65 39.935c11.008-.91 19.194-10.573 18.283-21.58C39.022 7.345 29.36-.84 18.352.071 7.343.982-.842 10.645.069 21.652c.91 11.009 10.573 19.194 21.581 18.283z" fill="url(#paint0_linear_1_195)"/><path d="M29.729 11.502l-3.571 18.013a1.315 1.315 0 01-1.873.658l-8.244-6.32-2.998-1.447-5.046-1.702s-.773-.273-.849-.872c-.075-.599.876-.925.876-.925l20.056-7.869s1.649-.734 1.649.464z" fill="#fff"/><path d="M15.409 29.307s-.24-.023-.543-.97c-.303-.948-1.823-5.941-1.823-5.941L25.15 14.7s.7-.424.674 0c0 0 .125.076-.247.425s-9.517 8.557-9.517 8.557" fill="#D2E5F1"/><path d="M19.203 26.266l-3.26 2.962a.57.57 0 01-.534.073l.622-5.523" fill="#B5CFE4"/></g><defs><linearGradient id="paint0_linear_1_195" x1="20.003" y1=".002" x2="20.003" y2="39.853" gradientUnits="userSpaceOnUse"><stop stop-color="#42BCE8"/><stop offset="1" stop-color="#23A7DC"/></linearGradient><clipPath id="clip0_1_195"><path fill="#fff" d="M0 0h40v40H0z"/></clipPath></defs></svg>