<svg width="40" height="40" fill="none" xmlns="http://www.w3.org/2000/svg"><g clip-path="url(#clip0_1_200)"><path d="M39.695 23.475c1.92-10.878-5.342-21.252-16.22-23.172-10.876-1.92-21.25 5.342-23.17 16.22-1.921 10.877 5.34 21.25 16.218 23.17 10.877 1.92 21.252-5.341 23.172-16.219z" fill="#07BB07"/><path fill-rule="evenodd" clip-rule="evenodd" d="M25.641 22.323c-.29-.157-1.718-.928-1.975-1.036-.256-.109-.46-.165-.658.122-.197.286-.8.934-.987 1.122-.188.187-.352.21-.659.053a8.152 8.152 0 01-2.32-1.557 8.885 8.885 0 01-1.566-2.11c-.165-.303 0-.454.151-.596.152-.141.31-.329.464-.503a2.01 2.01 0 00.313-.48.547.547 0 000-.52c-.066-.149-.602-1.626-.826-2.229-.224-.602-.474-.51-.659-.516-.184-.007-.368-.04-.566-.046a1.089 1.089 0 00-.8.329 3.324 3.324 0 00-1.125 2.445c-.053 1.451.951 2.9 1.093 3.1.141.201 1.922 3.354 4.88 4.65 2.96 1.297 2.962.902 3.519.873.556-.03 1.777-.659 2.05-1.317.208-.434.286-.92.224-1.398-.07-.125-.263-.208-.553-.366v-.02zm-5.43 7.007a9.578 9.578 0 01-5.29-1.593l-3.702 1.185 1.188-3.564a9.637 9.637 0 117.804 3.985v-.013zm0-21.217a11.582 11.582 0 00-9.916 17.574l-2.09 6.214 6.41-2.054a11.582 11.582 0 105.596-21.721v-.013z" fill="#F1F2F2"/></g><defs><clipPath id="clip0_1_200"><path fill="#fff" d="M0 0h40v40H0z"/></clipPath></defs></svg>